<svg xmlns="http://www.w3.org/2000/svg" viewBox="0 0 180 180">
  <rect width="180" height="180" rx="36" fill="#145c43"/>
  <path d="M57 118c-18 0-31-13-31-29s13-29 31-29c12 0 22 5.2 27 14.2L69.4 82.5c-2.6-4.5-6.8-7-12.1-7-8.5 0-14.5 6-14.5 13.5s6 13.5 14.5 13.5c5.3 0 9.5-2.5 12.1-7L84 103.8C79 112.8 69 118 57 118z" fill="#ffffff"/>
  <path d="M94 61h30c16.5 0 26.6 8.8 26.6 23 0 8.8-4 15.6-11 19.4l13.6 15.6h-20.4l-11-12.8h-10.5V119H94V61zm28.6 30.9c6.5 0 10.5-2.8 10.5-7.9s-4-7.9-10.5-7.9h-11.3v15.8h11.3z" fill="#f6b73c"/>
</svg>
