<svg xmlns="http://www.w3.org/2000/svg" viewBox="0 0 64 64">
  <rect width="64" height="64" rx="12" fill="#145c43"/>
  <path d="M21 42.5c-6.4 0-11-4.6-11-10.5s4.6-10.5 11-10.5c4.3 0 7.7 1.9 9.5 5.1l-5.1 2.9c-.9-1.6-2.4-2.5-4.3-2.5-3 0-5.1 2.1-5.1 5s2.1 5 5.1 5c1.9 0 3.4-.9 4.3-2.5l5.1 2.9c-1.8 3.2-5.2 5.1-9.5 5.1z" fill="#ffffff"/>
  <path d="M34 22h10.6c5.8 0 9.4 3.1 9.4 8.1 0 3.1-1.4 5.5-3.9 6.9l4.8 5.5h-7.2l-3.9-4.5h-3.7v4.5H34V22zm10.1 10.9c2.3 0 3.7-1 3.7-2.8s-1.4-2.8-3.7-2.8h-4v5.6h4z" fill="#f6b73c"/>
</svg>
